<svg t="1726808585908" class="icon" viewBox="0 0 1024 1024" version="1.1" xmlns="http://www.w3.org/2000/svg" p-id="23434" width="128" height="128"><path d="M935.104 384H88.96A24.64 24.64 0 0 0 64 408.384v438.848c0 26.88 22.272 48.768 49.792 48.768h796.416a49.28 49.28 0 0 0 49.792-48.768V408.384A24.64 24.64 0 0 0 935.104 384z m-559.296 271.232L239.36 761.664a33.472 33.472 0 0 1-39.168 0c-10.88-8.448-10.88-22.08 0-30.528L316.16 640 200.128 548.864c-7.04-5.44-9.728-13.44-7.168-20.864 2.56-7.424 9.984-13.248 19.584-15.232a33.28 33.28 0 0 1 26.752 5.568l136.512 106.432A19.456 19.456 0 0 1 384 640c0 5.76-2.944 11.2-8.192 15.232zM616 768h-144C458.752 768 448 753.664 448 736s10.752-32 24-32h144c13.248 0 24 14.336 24 32s-10.752 32-24 32z m294.208-640H113.792C86.272 128 64 147.072 64 170.688v128c0 11.776 11.136 21.312 24.896 21.312H935.04c13.76 0 24.896-9.6 24.896-21.312v-128c0-23.616-22.272-42.688-49.792-42.688zM224 256a32 32 0 1 1 0-64 32 32 0 0 1 0 64z m90.496 0a32 32 0 1 1 0-64 32 32 0 0 1 0 64zM416 256a32 32 0 1 1 0-64 32 32 0 0 1 0 64z" fill="#2c2c2c" p-id="23435"></path></svg>