<svg width="64" height="64" viewBox="0 0 50 48" fill="none" xmlns="http://www.w3.org/2000/svg" role="img" aria-label="TDengine">
  <title>TDengine</title>
  <path fill-rule="evenodd" clip-rule="evenodd" d="M25 3C26.6009 3 27.892 4.28834 27.892 5.88589C27.892 7.48344 26.6009 8.77178 25 8.77178C23.3991 8.77178 22.108 7.48344 22.108 5.88589C22.1596 4.28834 23.3991 3 25 3ZM5.89202 16.7595C7.49296 16.7595 8.78404 18.0479 8.78404 19.6454C8.78404 21.2429 7.49296 22.5313 5.89202 22.5313C4.29108 22.5313 3 21.2429 3 19.6454C3.05164 18.0479 4.34272 16.7595 5.89202 16.7595ZM13.3803 39.2282C14.9812 39.2282 16.2723 40.5166 16.2723 42.1141C16.2723 43.7117 14.9812 45 13.3803 45C11.7793 45 10.4883 43.7117 10.4883 42.1141C10.4883 40.5166 11.7793 39.2282 13.3803 39.2282ZM36.6197 39.2282C38.2207 39.2282 39.5117 40.5166 39.5117 42.1141C39.5117 43.7117 38.2207 45 36.6197 45C35.0188 45 33.7277 43.7117 33.7277 42.1141C33.7277 40.5166 35.0188 39.2282 36.6197 39.2282ZM29.2347 20.0577H20.7653L18.1831 28.0454L25 32.9926L31.8169 28.0969L29.2347 20.0577ZM21.0235 19.3877L23.9671 10.3178C23.7606 10.2663 23.5023 10.2147 23.2958 10.1117L20.3005 19.3877H10.4883C10.4883 19.4908 10.4883 19.5423 10.4883 19.6454C10.4883 19.8 10.4883 19.9546 10.4883 20.0577H20.0423L17.5634 27.6331L9.8169 22.016C9.71361 22.2221 9.55869 22.3767 9.40376 22.5828L16.0141 27.3755L17.3568 28.3546L16.892 29.6429L14.3099 37.6307C14.5164 37.6822 14.7746 37.7337 14.9812 37.8368L17.9249 28.8184L24.3803 33.508L16.7887 39.0221C16.9437 39.1767 17.0986 39.3828 17.2019 39.5374L25 33.8687L32.7981 39.5374C32.9014 39.3313 33.0563 39.1767 33.2113 39.0221L25.5681 33.4564L32.0235 28.7669L32.3333 29.6429L35.0188 37.8368C35.2253 37.7337 35.4319 37.6822 35.6901 37.6307L32.6948 28.3546L34.0376 27.3755L40.5962 22.5828C40.4413 22.4282 40.338 22.2221 40.1831 22.016L33.7793 26.654L33.5728 26.8086L32.385 27.6331L29.9061 20.0577H39.4601C39.4601 19.9031 39.4601 19.7485 39.4601 19.5939C39.4601 19.4908 39.4601 19.4393 39.4601 19.3362H29.6479L26.6526 10.0601C26.446 10.1632 26.2394 10.2147 25.9812 10.2663L28.9249 19.3362L21.0235 19.3877ZM9.55868 16.811L21.1784 8.35951C21.2817 8.56564 21.4366 8.72025 21.5915 8.87485L9.92019 17.3779C9.8169 17.1718 9.66197 17.0172 9.55868 16.811ZM11.6244 37.8368L7.13145 24.0258C7.33803 23.9742 7.5446 23.8712 7.75117 23.8196L12.2958 37.6307C12.0376 37.6822 11.831 37.7853 11.6244 37.8368ZM32.0751 42.2687H17.9765C17.9765 42.2172 17.9765 42.1656 17.9765 42.0626C17.9765 41.908 17.9765 41.7534 17.9765 41.5472H32.0751C32.0751 41.7018 32.0751 41.8564 32.0751 42.0626C32.0235 42.1656 32.0235 42.2172 32.0751 42.2687ZM42.9202 24.0773L38.4272 37.8883C38.2207 37.7853 38.0141 37.7337 37.8075 37.6822L42.3005 23.8712C42.4554 23.9227 42.662 24.0258 42.9202 24.0773ZM28.8732 8.35951L40.493 16.811C40.338 16.9656 40.2347 17.1718 40.1315 17.3779L28.4084 8.92638C28.5634 8.72024 28.7183 8.56564 28.8732 8.35951ZM44.108 16.7595C45.7089 16.7595 47 18.0479 47 19.6454C47 21.2429 45.7089 22.5313 44.108 22.5313C42.507 22.5313 41.216 21.2429 41.216 19.6454C41.216 18.0479 42.507 16.7595 44.108 16.7595Z" fill="#0041CE"/>
</svg>
