<svg t="1726944303710" class="icon" viewBox="0 0 1024 1024" version="1.1" xmlns="http://www.w3.org/2000/svg" p-id="10935" width="128" height="128"><path d="M106.666667 170.666667a42.666667 42.666667 0 0 1 42.666666-42.666667h256L512 256h362.666667a42.666667 42.666667 0 0 1 42.666666 42.666667v554.666666a42.666667 42.666667 0 0 1-42.666666 42.666667h-725.333334a42.666667 42.666667 0 0 1-42.666666-42.666667V170.666667z" fill="#E72528" fill-opacity=".1" p-id="10936"></path><path d="M149.333333 85.333333a85.333333 85.333333 0 0 0-85.333333 85.333334v682.666666a85.333333 85.333333 0 0 0 85.333333 85.333334h725.333334a85.333333 85.333333 0 0 0 85.333333-85.333334V298.666667a85.333333 85.333333 0 0 0-85.333333-85.333334h-342.698667l-93.866667-112.64A42.666667 42.666667 0 0 0 405.333333 85.333333h-256z m0 85.333334h236.032l93.866667 112.64A42.666667 42.666667 0 0 0 512 298.666667h362.666667v128h-725.333334V170.666667z m0 341.333333h725.333334v341.333333h-725.333334v-341.333333z" fill="#E74245" p-id="10937"></path></svg>